<svg height='1em'
    width='1em' viewBox="0 0 30 30" fill="none" xmlns="http://www.w3.org/2000/svg">
<path d="M23.75 3.75C21.6825 3.75 20 5.4325 20 7.5C20 8.1275 20.17 8.71 20.4425 9.23125L19.0475 10.8588C18.2223 10.2982 17.2476 9.99901 16.25 10C15.3263 10 14.4687 10.27 13.725 10.7075L11.9575 8.94C12.3086 8.30804 12.4952 7.59793 12.5 6.875C12.5 4.4625 10.5375 2.5 8.125 2.5C5.7125 2.5 3.75 4.4625 3.75 6.875C3.75 9.2875 5.7125 11.25 8.125 11.25C8.87625 11.25 9.5725 11.0425 10.19 10.7075L11.9575 12.475C11.4997 13.2381 11.2553 14.1101 11.25 15C11.25 16.2463 11.725 17.3737 12.4812 18.2512L10.3663 20.3662L10.3975 20.3975C9.88645 20.1394 9.32251 20.0033 8.75 20C6.6825 20 5 21.6825 5 23.75C5 25.8175 6.6825 27.5 8.75 27.5C10.8175 27.5 12.5 25.8175 12.5 23.75C12.5 23.155 12.3488 22.6012 12.1025 22.1025L12.1337 22.1338L14.5763 19.6912C15.1025 19.8787 15.66 20 16.25 20C19.0075 20 21.25 17.7575 21.25 15C21.2446 14.2235 21.0566 13.4592 20.7013 12.7688L22.2675 10.9412C22.7225 11.1388 23.2225 11.25 23.75 11.25C25.8175 11.25 27.5 9.5675 27.5 7.5C27.5 5.4325 25.8175 3.75 23.75 3.75ZM8.75 25C8.41848 25 8.10054 24.8683 7.86612 24.6339C7.6317 24.3995 7.5 24.0815 7.5 23.75C7.5 23.4185 7.6317 23.1005 7.86612 22.8661C8.10054 22.6317 8.41848 22.5 8.75 22.5C9.08152 22.5 9.39946 22.6317 9.63388 22.8661C9.8683 23.1005 10 23.4185 10 23.75C10 24.0815 9.8683 24.3995 9.63388 24.6339C9.39946 24.8683 9.08152 25 8.75 25ZM6.25 6.875C6.25 5.84125 7.09125 5 8.125 5C9.15875 5 10 5.84125 10 6.875C10 7.90875 9.15875 8.75 8.125 8.75C7.09125 8.75 6.25 7.90875 6.25 6.875ZM16.25 17.5C14.8713 17.5 13.75 16.3787 13.75 15C13.75 13.6213 14.8713 12.5 16.25 12.5C17.6287 12.5 18.75 13.6213 18.75 15C18.75 16.3787 17.6287 17.5 16.25 17.5ZM23.75 8.75C23.4185 8.75 23.1005 8.6183 22.8661 8.38388C22.6317 8.14946 22.5 7.83152 22.5 7.5C22.5 7.16848 22.6317 6.85054 22.8661 6.61612C23.1005 6.3817 23.4185 6.25 23.75 6.25C24.0815 6.25 24.3995 6.3817 24.6339 6.61612C24.8683 6.85054 25 7.16848 25 7.5C25 7.83152 24.8683 8.14946 24.6339 8.38388C24.3995 8.6183 24.0815 8.75 23.75 8.75Z" fill="currentColor"/>
<line x1="18.7071" y1="16.2929" x2="22.9497" y2="20.5355" stroke="currentColor" stroke-width="2"/>
<circle cx="25" cy="23" r="4" fill="#F1FF00"/>
</svg>
