<svg height='1em' width='1em' viewBox="0 0 30 30" fill="none" xmlns="http://www.w3.org/2000/svg">
<path d="M15 20C17.7575 20 20 17.7575 20 15C20 12.2425 17.7575 10 15 10C12.2425 10 10 12.2425 10 15C10 17.7575 12.2425 20 15 20ZM15 12.5C16.355 12.5 17.5 13.645 17.5 15C17.5 16.355 16.355 17.5 15 17.5C13.645 17.5 12.5 16.355 12.5 15C12.5 13.645 13.645 12.5 15 12.5Z" fill="#F1FF00"/>
<path d="M3.55647 20.17L4.80647 22.3325C5.47022 23.4787 7.06772 23.9088 8.21897 23.245L8.88022 22.8625C9.60339 23.4314 10.4007 23.899 11.2502 24.2525V25C11.2502 26.3787 12.3715 27.5 13.7502 27.5H16.2502C17.629 27.5 18.7502 26.3787 18.7502 25V24.2525C19.5994 23.899 20.3967 23.4318 21.1202 22.8638L21.7815 23.2463C22.9352 23.9088 24.529 23.4812 25.1952 22.3325L26.444 20.1712C26.7752 19.5971 26.8651 18.915 26.6937 18.2747C26.5224 17.6344 26.1039 17.0882 25.5302 16.7562L24.899 16.3912C25.0332 15.4694 25.0332 14.5331 24.899 13.6112L25.5302 13.2463C26.1037 12.914 26.5219 12.3679 26.6932 11.7277C26.8645 11.0875 26.7749 10.4055 26.444 9.83125L25.1952 7.67C24.5315 6.52 22.9352 6.08875 21.7815 6.755L21.1202 7.1375C20.397 6.56863 19.5997 6.101 18.7502 5.7475V5C18.7502 3.62125 17.629 2.5 16.2502 2.5H13.7502C12.3715 2.5 11.2502 3.62125 11.2502 5V5.7475C10.401 6.10105 9.60374 6.56823 8.88022 7.13625L8.21897 6.75375C7.06397 6.09 5.46897 6.52 4.80522 7.66875L3.55647 9.83C3.22519 10.4041 3.13536 11.0863 3.30668 11.7266C3.47801 12.3669 3.8965 12.913 4.47022 13.245L5.10147 13.61C4.96676 14.5314 4.96676 15.4674 5.10147 16.3888L4.47022 16.7537C3.89667 17.0862 3.47838 17.6325 3.30708 18.273C3.13579 18.9134 3.22547 19.5956 3.55647 20.17ZM7.71397 16.7225C7.57282 16.1592 7.50104 15.5807 7.50022 15C7.50022 14.4225 7.57272 13.8425 7.71272 13.2775C7.77864 13.0142 7.75696 12.7365 7.65095 12.4866C7.54494 12.2367 7.36038 12.0281 7.12522 11.8925L5.72147 11.08L6.96897 8.91875L8.40022 9.74625C8.63362 9.88131 8.90454 9.93702 9.1723 9.90501C9.44006 9.87301 9.69022 9.75502 9.88522 9.56875C10.7309 8.76444 11.7506 8.16602 12.8652 7.82C13.1212 7.74183 13.3454 7.58354 13.5047 7.36841C13.6641 7.15329 13.7501 6.8927 13.7502 6.625V5H16.2502V6.625C16.2503 6.8927 16.3364 7.15329 16.4957 7.36841C16.655 7.58354 16.8792 7.74183 17.1352 7.82C18.2496 8.16651 19.2692 8.76488 20.1152 9.56875C20.3104 9.75466 20.5605 9.8724 20.8282 9.9044C21.0959 9.93639 21.3667 9.88091 21.6002 9.74625L23.0302 8.92L24.2802 11.0812L22.8752 11.8925C22.6402 12.0283 22.4558 12.2369 22.3498 12.4867C22.2438 12.7366 22.222 13.0142 22.2877 13.2775C22.4277 13.8425 22.5002 14.4225 22.5002 15C22.5002 15.5763 22.4277 16.1562 22.2865 16.7225C22.2209 16.986 22.2428 17.2636 22.3491 17.5135C22.4553 17.7634 22.64 17.9719 22.8752 18.1075L24.279 18.9188L23.0315 21.08L21.6002 20.2537C21.3669 20.1185 21.0959 20.0627 20.8281 20.0947C20.5603 20.1267 20.3101 20.2448 20.1152 20.4312C19.2696 21.2356 18.2498 21.834 17.1352 22.18C16.8792 22.2582 16.655 22.4165 16.4957 22.6316C16.3364 22.8467 16.2503 23.1073 16.2502 23.375L16.2527 25H13.7502V23.375C13.7501 23.1073 13.6641 22.8467 13.5047 22.6316C13.3454 22.4165 13.1212 22.2582 12.8652 22.18C11.7508 21.8335 10.7312 21.2351 9.88522 20.4312C9.6906 20.2443 9.44028 20.1259 9.17228 20.0941C8.90427 20.0623 8.6332 20.1188 8.40022 20.255L6.97022 21.0825L5.72022 18.9212L7.12522 18.1075C7.36046 17.9719 7.54516 17.7634 7.65138 17.5135C7.7576 17.2636 7.77957 16.986 7.71397 16.7225Z" fill="currentColor"/>
</svg>
