<svg height='1em' width='1em' viewBox="0 0 30 30" fill="none" xmlns="http://www.w3.org/2000/svg">
<path d="M27.1325 6.61375L23.3838 2.86625C23.2679 2.74995 23.1301 2.65771 22.9785 2.59486C22.8268 2.532 22.6642 2.49976 22.5 2.5H7.5C7.33582 2.49976 7.17322 2.532 7.02155 2.59486C6.86988 2.65771 6.73214 2.74995 6.61625 2.86625L2.8675 6.61375C2.75071 6.72959 2.65809 6.86748 2.595 7.0194C2.53192 7.17132 2.49963 7.33425 2.5 7.49875V23.75C2.5 25.1288 3.62125 26.25 5 26.25H25C26.3788 26.25 27.5 25.1288 27.5 23.75V7.49875C27.5004 7.33425 27.4681 7.17132 27.405 7.0194C27.3419 6.86748 27.2493 6.72959 27.1325 6.61375ZM8.0175 5H21.9825L23.2313 6.24875H6.76875L8.0175 5ZM5 23.75V8.74875H25L25.0025 23.75H5Z" fill="currentColor"/>
<path d="M18.75 15H11.25V12.5H8.75V17.5H21.25V12.5H18.75V15Z" fill="#F1FF00"/>
</svg>
