<svg height='1em' width='1em' viewBox="0 0 30 42" fill="none" xmlns="http://www.w3.org/2000/svg">
<path d="M8.75 21.25C10.19 21.2481 11.5852 20.7497 12.7005 19.8389C13.8158 18.9281 14.5829 17.6605 14.8725 16.25H17.5V18.75H20V16.25H22.5V20H25V16.25H26.25V13.75H14.8725C14.5829 12.3395 13.8158 11.0719 12.7005 10.1611C11.5852 9.25031 10.19 8.75192 8.75 8.75C5.30375 8.75 2.5 11.5538 2.5 15C2.5 18.4462 5.30375 21.25 8.75 21.25ZM8.75 11.25C10.8175 11.25 12.5 12.9325 12.5 15C12.5 17.0675 10.8175 18.75 8.75 18.75C6.6825 18.75 5 17.0675 5 15C5 12.9325 6.6825 11.25 8.75 11.25Z" fill="currentColor"/>
<rect x="18" y="16" width="2" height="3" fill="#F1FF00"/>
<path d="M10.1758 33.2773C10.5312 33.668 10.8027 34.1465 10.9902 34.7129C11.1816 35.2793 11.2773 35.9219 11.2773 36.6406C11.2773 37.3594 11.1797 38.0039 10.9844 38.5742C10.793 39.1406 10.5234 39.6133 10.1758 39.9922C9.81641 40.3867 9.39062 40.6836 8.89844 40.8828C8.41016 41.082 7.85156 41.1816 7.22266 41.1816C6.60938 41.1816 6.05078 41.0801 5.54688 40.877C5.04688 40.6738 4.62109 40.3789 4.26953 39.9922C3.91797 39.6055 3.64648 39.1309 3.45508 38.5684C3.26758 38.0059 3.17383 37.3633 3.17383 36.6406C3.17383 35.9297 3.26758 35.293 3.45508 34.7305C3.64258 34.1641 3.91602 33.6797 4.27539 33.2773C4.61914 32.8945 5.04492 32.6016 5.55273 32.3984C6.06445 32.1953 6.62109 32.0938 7.22266 32.0938C7.84766 32.0938 8.4082 32.1973 8.9043 32.4043C9.4043 32.6074 9.82812 32.8984 10.1758 33.2773ZM10.0703 36.6406C10.0703 35.5078 9.81641 34.6348 9.30859 34.0215C8.80078 33.4043 8.10742 33.0957 7.22852 33.0957C6.3418 33.0957 5.64453 33.4043 5.13672 34.0215C4.63281 34.6348 4.38086 35.5078 4.38086 36.6406C4.38086 37.7852 4.63867 38.6621 5.1543 39.2715C5.66992 39.877 6.36133 40.1797 7.22852 40.1797C8.0957 40.1797 8.78516 39.877 9.29688 39.2715C9.8125 38.6621 10.0703 37.7852 10.0703 36.6406ZM19.0469 33.3066H15.9297V41H14.7695V33.3066H11.6523V32.2754H19.0469V33.3066ZM27.2324 41H25.7266L22.2754 37.1152L21.4082 38.041V41H20.248V32.2754H21.4082V36.8281L25.6445 32.2754H27.0508L23.1543 36.377L27.2324 41Z" fill="currentColor"/>
</svg>
