<svg width="142" height="59" viewBox="0 0 142 59" fill="none" xmlns="http://www.w3.org/2000/svg">
<path d="M3.49121 44.6865V54H1.49316V42.377H3.38379L3.49121 44.6865ZM3.08301 47.748L2.15918 47.7158C2.16634 46.9209 2.27018 46.1868 2.4707 45.5137C2.67122 44.8333 2.96842 44.2425 3.3623 43.7412C3.75618 43.2399 4.24674 42.8532 4.83398 42.5811C5.42122 42.3018 6.10156 42.1621 6.875 42.1621C7.41927 42.1621 7.92057 42.2409 8.37891 42.3984C8.83724 42.5488 9.2347 42.7887 9.57129 43.1182C9.90788 43.4476 10.1693 43.8701 10.3555 44.3857C10.5417 44.9014 10.6348 45.5244 10.6348 46.2549V54H8.64746V46.3516C8.64746 45.7428 8.54362 45.2559 8.33594 44.8906C8.13542 44.5254 7.84896 44.2604 7.47656 44.0957C7.10417 43.9238 6.66732 43.8379 6.16602 43.8379C5.57878 43.8379 5.08822 43.9417 4.69434 44.1494C4.30046 44.3571 3.98535 44.6436 3.74902 45.0088C3.5127 45.374 3.34082 45.793 3.2334 46.2656C3.13314 46.7311 3.08301 47.2253 3.08301 47.748ZM10.6133 46.6523L9.28125 47.0605C9.28841 46.4232 9.39225 45.8109 9.59277 45.2236C9.80046 44.6364 10.0977 44.1136 10.4844 43.6553C10.8783 43.1969 11.3617 42.8353 11.9346 42.5703C12.5075 42.2982 13.1628 42.1621 13.9004 42.1621C14.5234 42.1621 15.0749 42.2445 15.5547 42.4092C16.0417 42.5739 16.4499 42.8281 16.7793 43.1719C17.1159 43.5085 17.3701 43.9417 17.542 44.4717C17.7139 45.0016 17.7998 45.6318 17.7998 46.3623V54H15.8018V46.3408C15.8018 45.6891 15.6979 45.1842 15.4902 44.8262C15.2897 44.4609 15.0033 44.2067 14.6309 44.0635C14.2656 43.9131 13.8288 43.8379 13.3203 43.8379C12.8835 43.8379 12.4967 43.9131 12.1602 44.0635C11.8236 44.2139 11.5407 44.4215 11.3115 44.6865C11.0824 44.9443 10.9069 45.2415 10.7852 45.5781C10.6706 45.9147 10.6133 46.2728 10.6133 46.6523ZM27.6611 52.0127V46.0293C27.6611 45.571 27.568 45.1735 27.3818 44.8369C27.2028 44.4932 26.9307 44.2282 26.5654 44.042C26.2002 43.8558 25.749 43.7627 25.2119 43.7627C24.7106 43.7627 24.2702 43.8486 23.8906 44.0205C23.5182 44.1924 23.2246 44.418 23.0098 44.6973C22.8021 44.9766 22.6982 45.2773 22.6982 45.5996H20.7109C20.7109 45.1842 20.8184 44.7725 21.0332 44.3643C21.248 43.9561 21.556 43.5872 21.957 43.2578C22.3652 42.9212 22.8522 42.6562 23.418 42.4629C23.9909 42.2624 24.6283 42.1621 25.3301 42.1621C26.1751 42.1621 26.9199 42.3053 27.5645 42.5918C28.2161 42.8783 28.7246 43.3115 29.0898 43.8916C29.4622 44.4645 29.6484 45.1842 29.6484 46.0508V51.4648C29.6484 51.8516 29.6807 52.2633 29.7451 52.7002C29.8167 53.137 29.9206 53.513 30.0566 53.8281V54H27.9834C27.8831 53.7708 27.8044 53.4665 27.7471 53.0869C27.6898 52.7002 27.6611 52.3421 27.6611 52.0127ZM28.0049 46.9531L28.0264 48.3496H26.0176C25.4518 48.3496 24.9469 48.3962 24.5029 48.4893C24.0589 48.5752 23.6865 48.7077 23.3857 48.8867C23.085 49.0658 22.8558 49.2913 22.6982 49.5635C22.5407 49.8285 22.4619 50.14 22.4619 50.498C22.4619 50.8633 22.5443 51.1963 22.709 51.4971C22.8737 51.7979 23.1208 52.0378 23.4502 52.2168C23.7868 52.3887 24.1986 52.4746 24.6855 52.4746C25.2943 52.4746 25.8314 52.3457 26.2969 52.0879C26.7624 51.8301 27.1312 51.515 27.4033 51.1426C27.6826 50.7702 27.833 50.4085 27.8545 50.0576L28.7031 51.0137C28.653 51.3145 28.5169 51.6475 28.2949 52.0127C28.0729 52.3779 27.7757 52.7288 27.4033 53.0654C27.0381 53.3949 26.6012 53.6706 26.0928 53.8926C25.5915 54.1074 25.0257 54.2148 24.3955 54.2148C23.6077 54.2148 22.9167 54.0609 22.3223 53.7529C21.735 53.445 21.2767 53.0332 20.9473 52.5176C20.625 51.9948 20.4639 51.4111 20.4639 50.7666C20.4639 50.1436 20.5856 49.5957 20.8291 49.123C21.0726 48.6432 21.4235 48.2458 21.8818 47.9307C22.3402 47.6084 22.8916 47.3649 23.5361 47.2002C24.1807 47.0355 24.9004 46.9531 25.6953 46.9531H28.0049ZM34.7617 44.8584V54H32.7744V42.377H34.6543L34.7617 44.8584ZM34.2891 47.748L33.4619 47.7158C33.4691 46.9209 33.5872 46.1868 33.8164 45.5137C34.0456 44.8333 34.3678 44.2425 34.7832 43.7412C35.1986 43.2399 35.6927 42.8532 36.2656 42.5811C36.8457 42.3018 37.4867 42.1621 38.1885 42.1621C38.7614 42.1621 39.277 42.2409 39.7354 42.3984C40.1937 42.5488 40.584 42.7923 40.9062 43.1289C41.2357 43.4655 41.4863 43.9023 41.6582 44.4395C41.8301 44.9694 41.916 45.6175 41.916 46.3838V54H39.918V46.3623C39.918 45.7536 39.8285 45.2666 39.6494 44.9014C39.4704 44.529 39.209 44.2604 38.8652 44.0957C38.5215 43.9238 38.099 43.8379 37.5977 43.8379C37.1035 43.8379 36.6523 43.9417 36.2441 44.1494C35.8431 44.3571 35.4958 44.6436 35.2021 45.0088C34.9157 45.374 34.6901 45.793 34.5254 46.2656C34.3678 46.7311 34.2891 47.2253 34.2891 47.748ZM51.7881 52.0127V46.0293C51.7881 45.571 51.695 45.1735 51.5088 44.8369C51.3298 44.4932 51.0576 44.2282 50.6924 44.042C50.3271 43.8558 49.876 43.7627 49.3389 43.7627C48.8376 43.7627 48.3971 43.8486 48.0176 44.0205C47.6452 44.1924 47.3516 44.418 47.1367 44.6973C46.929 44.9766 46.8252 45.2773 46.8252 45.5996H44.8379C44.8379 45.1842 44.9453 44.7725 45.1602 44.3643C45.375 43.9561 45.6829 43.5872 46.084 43.2578C46.4922 42.9212 46.9792 42.6562 47.5449 42.4629C48.1178 42.2624 48.7552 42.1621 49.457 42.1621C50.3021 42.1621 51.0469 42.3053 51.6914 42.5918C52.3431 42.8783 52.8516 43.3115 53.2168 43.8916C53.5892 44.4645 53.7754 45.1842 53.7754 46.0508V51.4648C53.7754 51.8516 53.8076 52.2633 53.8721 52.7002C53.9437 53.137 54.0475 53.513 54.1836 53.8281V54H52.1104C52.0101 53.7708 51.9313 53.4665 51.874 53.0869C51.8167 52.7002 51.7881 52.3421 51.7881 52.0127ZM52.1318 46.9531L52.1533 48.3496H50.1445C49.5788 48.3496 49.0739 48.3962 48.6299 48.4893C48.1859 48.5752 47.8135 48.7077 47.5127 48.8867C47.2119 49.0658 46.9827 49.2913 46.8252 49.5635C46.6676 49.8285 46.5889 50.14 46.5889 50.498C46.5889 50.8633 46.6712 51.1963 46.8359 51.4971C47.0007 51.7979 47.2477 52.0378 47.5771 52.2168C47.9137 52.3887 48.3255 52.4746 48.8125 52.4746C49.4212 52.4746 49.9583 52.3457 50.4238 52.0879C50.8893 51.8301 51.2581 51.515 51.5303 51.1426C51.8096 50.7702 51.96 50.4085 51.9814 50.0576L52.8301 51.0137C52.7799 51.3145 52.6439 51.6475 52.4219 52.0127C52.1999 52.3779 51.9027 52.7288 51.5303 53.0654C51.165 53.3949 50.7282 53.6706 50.2197 53.8926C49.7184 54.1074 49.1527 54.2148 48.5225 54.2148C47.7347 54.2148 47.0436 54.0609 46.4492 53.7529C45.862 53.445 45.4036 53.0332 45.0742 52.5176C44.752 51.9948 44.5908 51.4111 44.5908 50.7666C44.5908 50.1436 44.7126 49.5957 44.9561 49.123C45.1995 48.6432 45.5505 48.2458 46.0088 47.9307C46.4671 47.6084 47.0186 47.3649 47.6631 47.2002C48.3076 47.0355 49.0273 46.9531 49.8223 46.9531H52.1318ZM64.4316 42.377H66.2363V53.7529C66.2363 54.777 66.0286 55.6507 65.6133 56.374C65.1979 57.0973 64.6178 57.6452 63.873 58.0176C63.1354 58.3971 62.2832 58.5869 61.3164 58.5869C60.9154 58.5869 60.4427 58.5225 59.8984 58.3936C59.3613 58.2718 58.8314 58.0605 58.3086 57.7598C57.793 57.4661 57.3597 57.0687 57.0088 56.5674L58.0508 55.3857C58.5378 55.973 59.0462 56.3812 59.5762 56.6104C60.1133 56.8395 60.6432 56.9541 61.166 56.9541C61.7962 56.9541 62.3405 56.8359 62.7988 56.5996C63.2572 56.3633 63.6117 56.0124 63.8623 55.5469C64.1201 55.0885 64.249 54.5228 64.249 53.8496V44.9336L64.4316 42.377ZM56.4287 48.3174V48.0918C56.4287 47.2038 56.5326 46.3981 56.7402 45.6748C56.9551 44.9443 57.2594 44.3177 57.6533 43.7949C58.0544 43.2721 58.5378 42.8711 59.1035 42.5918C59.6693 42.3053 60.3066 42.1621 61.0156 42.1621C61.7461 42.1621 62.3835 42.291 62.9277 42.5488C63.4792 42.7995 63.9447 43.1683 64.3242 43.6553C64.7109 44.1351 65.0153 44.7152 65.2373 45.3955C65.4593 46.0758 65.6133 46.8457 65.6992 47.7051V48.6934C65.6204 49.5456 65.4665 50.3118 65.2373 50.9922C65.0153 51.6725 64.7109 52.2526 64.3242 52.7324C63.9447 53.2122 63.4792 53.5811 62.9277 53.8389C62.3763 54.0895 61.7318 54.2148 60.9941 54.2148C60.2995 54.2148 59.6693 54.068 59.1035 53.7744C58.5449 53.4808 58.0651 53.069 57.6641 52.5391C57.263 52.0091 56.9551 51.3861 56.7402 50.6699C56.5326 49.9466 56.4287 49.1624 56.4287 48.3174ZM58.416 48.0918V48.3174C58.416 48.8975 58.4733 49.4417 58.5879 49.9502C58.7096 50.4587 58.8923 50.9062 59.1357 51.293C59.3864 51.6797 59.7051 51.984 60.0918 52.2061C60.4785 52.4209 60.9404 52.5283 61.4775 52.5283C62.1364 52.5283 62.6807 52.3887 63.1104 52.1094C63.54 51.8301 63.8802 51.4613 64.1309 51.0029C64.3887 50.5446 64.5892 50.0469 64.7324 49.5098V46.9209C64.6536 46.527 64.5319 46.1475 64.3672 45.7822C64.2096 45.4098 64.002 45.0804 63.7441 44.7939C63.4935 44.5003 63.182 44.2676 62.8096 44.0957C62.4372 43.9238 62.0003 43.8379 61.499 43.8379C60.9548 43.8379 60.4857 43.9525 60.0918 44.1816C59.7051 44.4036 59.3864 44.7116 59.1357 45.1055C58.8923 45.4922 58.7096 45.9434 58.5879 46.459C58.4733 46.9674 58.416 47.5117 58.416 48.0918ZM74.0781 54.2148C73.2689 54.2148 72.5348 54.0788 71.876 53.8066C71.2243 53.5273 70.6621 53.137 70.1895 52.6357C69.724 52.1344 69.3659 51.54 69.1152 50.8525C68.8646 50.165 68.7393 49.4131 68.7393 48.5967V48.1455C68.7393 47.2002 68.8789 46.3587 69.1582 45.6211C69.4375 44.8763 69.8171 44.2461 70.2969 43.7305C70.7767 43.2148 71.321 42.8245 71.9297 42.5596C72.5384 42.2946 73.1686 42.1621 73.8203 42.1621C74.651 42.1621 75.3672 42.3053 75.9688 42.5918C76.5775 42.8783 77.0752 43.2793 77.4619 43.7949C77.8486 44.3034 78.1351 44.9049 78.3213 45.5996C78.5075 46.2871 78.6006 47.0391 78.6006 47.8555V48.7471H69.9209V47.125H76.6133V46.9746C76.5846 46.459 76.4772 45.9577 76.291 45.4707C76.112 44.9837 75.8255 44.5827 75.4316 44.2676C75.0378 43.9525 74.5007 43.7949 73.8203 43.7949C73.3691 43.7949 72.9538 43.8916 72.5742 44.085C72.1947 44.2712 71.8688 44.5505 71.5967 44.9229C71.3245 45.2952 71.1133 45.75 70.9629 46.2871C70.8125 46.8242 70.7373 47.4437 70.7373 48.1455V48.5967C70.7373 49.1481 70.8125 49.6673 70.9629 50.1543C71.1204 50.6341 71.346 51.0566 71.6396 51.4219C71.9404 51.7871 72.3021 52.0736 72.7246 52.2812C73.1543 52.4889 73.6413 52.5928 74.1855 52.5928C74.8874 52.5928 75.4818 52.4495 75.9688 52.1631C76.4557 51.8766 76.8818 51.4935 77.2471 51.0137L78.4502 51.9697C78.1995 52.3493 77.8809 52.7109 77.4941 53.0547C77.1074 53.3984 76.6312 53.6777 76.0654 53.8926C75.5068 54.1074 74.8444 54.2148 74.0781 54.2148ZM82.8975 44.6865V54H80.8994V42.377H82.79L82.8975 44.6865ZM82.4893 47.748L81.5654 47.7158C81.5726 46.9209 81.6764 46.1868 81.877 45.5137C82.0775 44.8333 82.3747 44.2425 82.7686 43.7412C83.1624 43.2399 83.653 42.8532 84.2402 42.5811C84.8275 42.3018 85.5078 42.1621 86.2812 42.1621C86.8255 42.1621 87.3268 42.2409 87.7852 42.3984C88.2435 42.5488 88.641 42.7887 88.9775 43.1182C89.3141 43.4476 89.5755 43.8701 89.7617 44.3857C89.9479 44.9014 90.041 45.5244 90.041 46.2549V54H88.0537V46.3516C88.0537 45.7428 87.9499 45.2559 87.7422 44.8906C87.5417 44.5254 87.2552 44.2604 86.8828 44.0957C86.5104 43.9238 86.0736 43.8379 85.5723 43.8379C84.985 43.8379 84.4945 43.9417 84.1006 44.1494C83.7067 44.3571 83.3916 44.6436 83.1553 45.0088C82.9189 45.374 82.7471 45.793 82.6396 46.2656C82.5394 46.7311 82.4893 47.2253 82.4893 47.748ZM90.0195 46.6523L88.6875 47.0605C88.6947 46.4232 88.7985 45.8109 88.999 45.2236C89.2067 44.6364 89.5039 44.1136 89.8906 43.6553C90.2845 43.1969 90.7679 42.8353 91.3408 42.5703C91.9137 42.2982 92.569 42.1621 93.3066 42.1621C93.9297 42.1621 94.4811 42.2445 94.9609 42.4092C95.4479 42.5739 95.8561 42.8281 96.1855 43.1719C96.5221 43.5085 96.7764 43.9417 96.9482 44.4717C97.1201 45.0016 97.2061 45.6318 97.2061 46.3623V54H95.208V46.3408C95.208 45.6891 95.1042 45.1842 94.8965 44.8262C94.696 44.4609 94.4095 44.2067 94.0371 44.0635C93.6719 43.9131 93.235 43.8379 92.7266 43.8379C92.2897 43.8379 91.903 43.9131 91.5664 44.0635C91.2298 44.2139 90.9469 44.4215 90.7178 44.6865C90.4886 44.9443 90.3132 45.2415 90.1914 45.5781C90.0768 45.9147 90.0195 46.2728 90.0195 46.6523ZM105.037 54.2148C104.228 54.2148 103.494 54.0788 102.835 53.8066C102.183 53.5273 101.621 53.137 101.148 52.6357C100.683 52.1344 100.325 51.54 100.074 50.8525C99.8236 50.165 99.6982 49.4131 99.6982 48.5967V48.1455C99.6982 47.2002 99.8379 46.3587 100.117 45.6211C100.396 44.8763 100.776 44.2461 101.256 43.7305C101.736 43.2148 102.28 42.8245 102.889 42.5596C103.497 42.2946 104.128 42.1621 104.779 42.1621C105.61 42.1621 106.326 42.3053 106.928 42.5918C107.536 42.8783 108.034 43.2793 108.421 43.7949C108.808 44.3034 109.094 44.9049 109.28 45.5996C109.466 46.2871 109.56 47.0391 109.56 47.8555V48.7471H100.88V47.125H107.572V46.9746C107.544 46.459 107.436 45.9577 107.25 45.4707C107.071 44.9837 106.785 44.5827 106.391 44.2676C105.997 43.9525 105.46 43.7949 104.779 43.7949C104.328 43.7949 103.913 43.8916 103.533 44.085C103.154 44.2712 102.828 44.5505 102.556 44.9229C102.284 45.2952 102.072 45.75 101.922 46.2871C101.771 46.8242 101.696 47.4437 101.696 48.1455V48.5967C101.696 49.1481 101.771 49.6673 101.922 50.1543C102.079 50.6341 102.305 51.0566 102.599 51.4219C102.899 51.7871 103.261 52.0736 103.684 52.2812C104.113 52.4889 104.6 52.5928 105.145 52.5928C105.846 52.5928 106.441 52.4495 106.928 52.1631C107.415 51.8766 107.841 51.4935 108.206 51.0137L109.409 51.9697C109.159 52.3493 108.84 52.7109 108.453 53.0547C108.066 53.3984 107.59 53.6777 107.024 53.8926C106.466 54.1074 105.803 54.2148 105.037 54.2148ZM113.867 44.8584V54H111.88V42.377H113.76L113.867 44.8584ZM113.395 47.748L112.567 47.7158C112.575 46.9209 112.693 46.1868 112.922 45.5137C113.151 44.8333 113.473 44.2425 113.889 43.7412C114.304 43.2399 114.798 42.8532 115.371 42.5811C115.951 42.3018 116.592 42.1621 117.294 42.1621C117.867 42.1621 118.382 42.2409 118.841 42.3984C119.299 42.5488 119.689 42.7923 120.012 43.1289C120.341 43.4655 120.592 43.9023 120.764 44.4395C120.936 44.9694 121.021 45.6175 121.021 46.3838V54H119.023V46.3623C119.023 45.7536 118.934 45.2666 118.755 44.9014C118.576 44.529 118.314 44.2604 117.971 44.0957C117.627 43.9238 117.204 43.8379 116.703 43.8379C116.209 43.8379 115.758 43.9417 115.35 44.1494C114.949 44.3571 114.601 44.6436 114.308 45.0088C114.021 45.374 113.796 45.793 113.631 46.2656C113.473 46.7311 113.395 47.2253 113.395 47.748ZM128.906 42.377V43.9023H122.622V42.377H128.906ZM124.749 39.5518H126.736V51.1211C126.736 51.515 126.797 51.8122 126.919 52.0127C127.041 52.2132 127.198 52.3457 127.392 52.4102C127.585 52.4746 127.793 52.5068 128.015 52.5068C128.179 52.5068 128.351 52.4925 128.53 52.4639C128.716 52.4281 128.856 52.3994 128.949 52.3779L128.96 54C128.802 54.0501 128.595 54.0967 128.337 54.1396C128.086 54.1898 127.782 54.2148 127.424 54.2148C126.937 54.2148 126.489 54.1182 126.081 53.9248C125.673 53.7314 125.347 53.4092 125.104 52.958C124.867 52.4997 124.749 51.8838 124.749 51.1104V39.5518Z" fill="currentColor"/>
<path d="M12.4644 8.48408C14.0644 8.48408 15.2515 8.76433 16.0257 9.32484C16.8257 9.85987 17.2257 10.7516 17.2257 12C17.2257 13.1465 16.8257 14.0127 16.0257 14.5987C15.2515 15.1592 14.0773 15.4395 12.5031 15.4395H7.78057V8.48408H12.4644ZM12.7741 21.8599C17.0063 21.8853 20.1288 21.0318 22.1417 19.2994C24.1546 17.5669 25.1611 15.121 25.1611 11.9618C25.1611 8.80255 24.1546 6.34395 22.1417 4.58599C20.1288 2.82803 16.9289 1.94904 12.5418 1.94904H0V29.3503H7.78057V21.8599H12.7741Z" fill="currentColor"/>
<path d="M39.7394 30C43.8167 30 46.978 29.0191 49.2231 27.0573C51.4941 25.0701 52.6296 22.2675 52.6296 18.6497V18.2675C52.6296 15.7962 52.1005 13.707 51.0425 12C50.0102 10.2675 48.5264 8.94268 46.5909 8.02548C45.6361 7.56688 44.5909 7.22293 43.4555 6.99363C42.3458 6.76433 41.1329 6.64968 39.8168 6.64968C37.262 6.64968 35.0168 7.10828 33.0813 8.02548C31.1717 8.94268 29.6749 10.2675 28.5911 12C28.0749 12.8662 27.6749 13.8217 27.3911 14.8662C27.133 15.9108 27.004 17.0446 27.004 18.2675V18.6497C27.004 22.293 28.0491 25.0955 30.1394 27.0573C32.2297 29.0191 35.4297 30 39.7394 30ZM39.8168 23.5032C38.2684 23.5032 37.0684 23.0955 36.2168 22.2803C35.391 21.4395 34.9781 20.2166 34.9781 18.6115V18.2675C34.9781 16.5096 35.4039 15.1975 36.2555 14.3312C37.1329 13.465 38.3329 13.0318 39.8555 13.0318C41.4555 13.0318 42.6555 13.465 43.4555 14.3312C44.2554 15.1975 44.6554 16.5096 44.6554 18.2675V18.6115C44.6554 20.242 44.2296 21.465 43.378 22.2803C42.5522 23.0955 41.3651 23.5032 39.8168 23.5032Z" fill="currentColor"/>
<path d="M63.8843 29.3503V20.6752C63.8843 19.2229 64.0391 18.0764 64.3488 17.2357C64.6585 16.3949 65.2133 15.7962 66.0133 15.4395C66.4262 15.2611 66.9294 15.1338 67.523 15.0573C68.1165 14.9554 68.7875 14.9045 69.5359 14.9045H72.6713V6.87898H70.9294C68.7101 6.87898 66.9681 7.33758 65.7036 8.25478C64.4649 9.1465 63.6391 10.5478 63.2262 12.4586L62.2198 7.18471H55.6779V29.3503H63.8843Z" fill="currentColor"/>
<path d="M93.3049 22.5096H90.9049C89.7436 22.5096 88.8662 22.4204 88.2727 22.242C87.7049 22.0382 87.3178 21.6306 87.1114 21.0191C87.0082 20.7134 86.9308 20.3312 86.8791 19.8726C86.8275 19.3885 86.8017 18.828 86.8017 18.1911V13.8726H93.3049V7.18471H86.8017V1.41401H80.4534C80.4276 1.94904 80.3889 2.52229 80.3373 3.13376C80.3115 3.74522 80.234 4.30573 80.105 4.81529C79.9244 5.63057 79.6663 6.21656 79.3308 6.57325C79.0212 6.92994 78.5179 7.17198 77.8212 7.29936C77.3825 7.40127 76.9309 7.47771 76.4663 7.52866C76.0276 7.55414 75.5244 7.57962 74.9567 7.6051V13.8726H79.3308V19.3758C79.3308 21.7962 79.5889 23.7452 80.105 25.2229C80.6469 26.6752 81.5889 27.7325 82.9308 28.3949C83.6018 28.7006 84.4146 28.9427 85.3695 29.121C86.3243 29.2739 87.4211 29.3503 88.6598 29.3503H93.3049V22.5096Z" fill="currentColor"/>
<path d="M106.644 24.6497C105.741 24.6497 105.057 24.5096 104.593 24.2293C104.154 23.9236 103.935 23.4777 103.935 22.8917V22.8535C103.935 22.5223 104.012 22.2293 104.167 21.9745C104.322 21.6943 104.554 21.4522 104.864 21.2484C105.225 21.0446 105.689 20.879 106.257 20.7516C106.825 20.5987 107.689 20.4459 108.851 20.293C109.754 20.1401 110.502 19.9745 111.096 19.7962C111.689 19.6178 112.154 19.3885 112.489 19.1083V20.0255C112.489 20.7898 112.231 21.5287 111.715 22.242C111.199 22.9554 110.502 23.5287 109.625 23.9618C109.186 24.1911 108.722 24.3694 108.231 24.4968C107.741 24.5987 107.212 24.6497 106.644 24.6497ZM113.534 29.3503H120.192V15.6306C120.192 12.6752 119.289 10.4459 117.483 8.94267C115.676 7.41401 112.734 6.64968 108.657 6.64968C104.786 6.64968 101.793 7.41401 99.6765 8.94267C97.5862 10.4459 96.4249 12.5605 96.1927 15.2866H104.283C104.335 14.3185 104.709 13.5796 105.405 13.0701C106.128 12.5605 107.264 12.3057 108.812 12.3057C110.205 12.3057 111.16 12.4968 111.676 12.879C112.193 13.2611 112.451 13.7452 112.451 14.3312C112.451 14.9682 112.051 15.4268 111.251 15.707C110.476 15.9618 109.044 16.1911 106.954 16.3949C105.483 16.5732 104.244 16.7516 103.238 16.9299C102.257 17.0828 101.418 17.2611 100.722 17.465C100.386 17.5924 100.051 17.7325 99.7152 17.8854C99.3797 18.0127 99.0443 18.1656 98.7088 18.3439C97.6765 18.9045 96.8765 19.6433 96.3088 20.5605C95.7669 21.4777 95.4959 22.5987 95.4959 23.9236C95.4959 25.8599 96.154 27.3631 97.4701 28.4331C98.812 29.4777 100.812 30 103.47 30C105.896 30 107.857 29.5541 109.354 28.6624C110.876 27.7707 111.999 26.6497 112.722 25.2994L113.534 29.3503Z" fill="currentColor"/>
<path d="M132 29.3503V0H123.987V29.3503H132Z" fill="currentColor"/>
<path d="M142 7H137V11H142V7Z" fill="#F1FF00"/>
</svg>
