<svg width="130" height="40" viewBox="0 0 130 40" fill="none" xmlns="http://www.w3.org/2000/svg">
<path d="M55.9077 1.42288H61.8995V9.49745H74.6478V14.881H61.8995V32.9613H74.6478V38.4965H69.1126C65.7601 38.4965 63.1708 38.0399 61.2413 37.2268C57.3853 35.4505 55.9077 31.5853 55.9077 24.7334V1.42288Z" fill="white"/>
<path d="M106.031 35.044C102.832 37.7866 98.2132 39.4613 91.8617 39.4613C83.6355 39.4613 79.8218 36.6186 79.8218 31.3867V31.3351C79.8218 28.1875 81.1931 25.9015 83.9372 24.4285C84.961 23.842 86.052 23.3816 87.1865 23.0572C89.6242 22.2958 93.3315 21.7876 99.5282 21.4326C102.068 21.2763 103.997 21.0777 105.42 20.8744C108.263 20.4679 109.329 19.6548 109.329 18.0302V17.9817C109.329 17.1686 109.016 16.4071 108.414 15.6456C107.246 14.1727 104.505 13.0563 99.3749 13.0563C90.7906 13.0563 87.5914 15.1891 86.9816 19.8111H80.4863C81.4511 11.9383 87.5961 8.38416 98.8714 8.38416C110.095 8.38416 115.377 11.6334 115.377 19.4046V38.4965H110.197L109.587 30.522C108.775 32.1998 107.607 33.6711 106.031 35.044ZM105.118 31.4367C107.911 29.3039 109.434 26.7146 109.434 24.1752V22.9556C108.469 24.2253 106.031 24.9883 100.09 25.3433C93.4378 25.6982 90.3387 26.258 88.5609 27.426C87.1896 28.2375 86.5282 29.4056 86.5282 30.8285V30.8785C86.5282 33.3162 88.4045 34.8908 93.588 34.8908C98.4133 34.8908 102.324 33.5711 105.118 31.4367Z" fill="white"/>
<path d="M123.653 0H130V38.4965H123.653V0Z" fill="white"/>
<path d="M50.5397 9.49747H44.6401V14.881H50.5397V9.49747Z" fill="#F1FF00"/>
<path d="M34.1606 3.35242L20.1598 31.898L6.84556 3.35242H0L15.3517 35.5491C15.7722 36.4315 16.4341 37.1767 17.2607 37.6983C18.0873 38.22 19.0448 38.4967 20.0223 38.4965C20.9804 38.4963 21.9196 38.2302 22.7354 37.7277C23.5512 37.2253 24.2115 36.5062 24.6428 35.6507L40.953 3.35242H34.1606Z" fill="white"/>
</svg>
